<?xml version="1.0" encoding="utf-8"?>
<!-- Generator: Adobe Illustrator 27.4.0, SVG Export Plug-In . SVG Version: 6.00 Build 0)  -->
<svg version="1.1" id="Capa_1" xmlns="http://www.w3.org/2000/svg" xmlns:xlink="http://www.w3.org/1999/xlink" x="0px" y="0px"
	 viewBox="0 0 319.1 279.5" style="enable-background:new 0 0 319.1 279.5;" xml:space="preserve">
<style type="text/css">
	.st0{fill:#AB75FF;}
</style>
<path class="st0" d="M319.1,126v28.6c0,0.1,0,0.2,0,0.4c0.1,6.8-2.5,13.6-7.7,18.7l-101,98.5c-10.2,9.9-26.4,9.7-36.3-0.4l-20-20.5
	c-9.9-10.2-9.7-26.4,0.5-36.3l35.5-34.6H87v73.5c0,14.2-11.5,25.7-25.7,25.7H32.7C18.5,279.5,7,268,7,253.8V25.7
	C7,11.5,18.5,0,32.7,0h28.6C75.5,0,87,11.5,87,25.7v74.6h104.3l-36-36.1c-10-10-10-26.3,0-36.3l20.2-20.2c10-10,26.3-10,36.3,0
	l99.7,99.7c4.3,4.3,6.8,9.9,7.3,15.5c0.1,0.5,0.1,0.9,0.1,1.4v0.1C319.1,124.9,319.1,125.4,319.1,126z"/>
</svg>
