<svg xmlns="http://www.w3.org/2000/svg" width="92.282" height="82.542" viewBox="0 0 92.282 82.542">
  <g id="LOGIN" transform="translate(-42.018 -5.863)">
    <path id="Trazado_119" data-name="Trazado 119" d="M134.3,18.2c-.1.4-.1.9-.6,1-.7.1-.5-.5-.5-.8-.3-3.3-1.2-6.5-.9-9.8,1.1,2.7.8,5.6,1.4,8.4C133.8,17.4,133.8,17.9,134.3,18.2Z" fill="#bababa"/>
    <g id="Grupo_4" data-name="Grupo 4">
      <path id="Trazado_120" data-name="Trazado 120" d="M44.9,32.3a14.476,14.476,0,0,1-1-4.1c-.3-.9-.1-1.8-.4-2.7a76.925,76.925,0,0,1-.2-9.6c.7-3.2,1-3.5,3.7-3.3,1.3.3,2.7.7,4,1a3.292,3.292,0,0,0,1.9.6,28.076,28.076,0,0,1,11.8,4.3c-1,2.4-3.8,3.4-4.5,6.1a1,1,0,0,1-1,.6c-3,.3-4.9,2.5-7.4,3.9-.6.3-1,.9-1.7,1-2.8.4-3.7,2.1-3.3,4.7a2.651,2.651,0,0,1-.5.6C45.1,34.7,45.6,33.2,44.9,32.3Z" fill="#5e5e5e"/>
      <path id="Trazado_121" data-name="Trazado 121" d="M97.8,21.2c1.3-.7,2.6-1.4,3.8-2.1,2.5-1.1,4.8-2.5,7.5-3a17.826,17.826,0,0,1,3.3-.9c2.3-.2,3.7.3,4.9,2.6,1.1,2,3.6,3.2,5.3,5,.3.3.7.5.8.9-.4,4.2-3.2,7.2-5.3,10.5-.7,1.1-1.6,2.1-2.3,3.2-.9.6-2.1,2.2-2.8,1.4-1.3-1.4,1.3-2.1,1.4-3.4a26.353,26.353,0,0,0,.2-2.8c.8-1.6-.3-2.6-1.3-3.5-1-.8-1.8-.1-2.4.9-.6.6-1.2,1.7-2.2,1.2-.9-.6-.6-1.7-.6-2.6,0-1,.5-1.9.5-3.1-1.4,0-2.6.8-3.8,1-1.8.3-2.9,0-2.2-2.2.3-.8.1-1-.7-1-1.2,0-2.5.3-3.6-.3C97.7,22.4,97.4,21.9,97.8,21.2Z" fill="#3b3b3b"/>
      <path id="Trazado_122" data-name="Trazado 122" d="M134.1,24.4c-.2,1.7.1,3.6-1.1,5-1.3-.5-1.8-1.3-1.6-3.4.1-1.2-.6-.1-.7-.4-1-1.5.1-3.1-.1-4.6-.1-.7,0-1.5-.1-2.2-.2-1.8-.7-2.9-2.6-1.4-.3.2-.6.3-.9.5-3.9,2.1-4.5,1.9-7.9-1-1.5-1.4-3.2-2.4-5.5-1.8a1.6,1.6,0,0,1-1.6-.5,154,154,0,0,1,16.9-8.1c2.9-1.1,2.9-1,3.2,2.1.4,2.9.6,5.9,1.2,8.8.3.5.2,1.1,1,.8" fill="#7f7f7f"/>
      <path id="Trazado_123" data-name="Trazado 123" d="M112.1,14.6c3.7-.9,6.5.2,8.9,3.2,1,1.3,2.8,1.1,4.4.3.4-.2.6-1.2,1.4-.5-.1,2.4-1.8,4-2.8,6a.821.821,0,0,1-.7.1,4.851,4.851,0,0,1-3.1-2.5c-.2-.3-.3-.8-.5-.8-2.6-.2-2.8-2.4-3.8-4.1-1-1.6-3-.2-4.6-.5-.6-.1-1.4.3-2.2.2A8.256,8.256,0,0,1,112.1,14.6Z" fill="#636363"/>
      <path id="Trazado_124" data-name="Trazado 124" d="M61.5,80.4c.1-.3.3-.7.2-1-.7-1.8.6-1.2,1.9-1.2-2.6-2-.4-3.8-.3-5.6a14.455,14.455,0,0,1,.4-2.9c.5-.3,1-.8,1.5-.2.6.7.1,1.5-.1,2.3-.9,2.9.1,5.2,2.3,7.1a15.405,15.405,0,0,0,4.9,3,1.5,1.5,0,0,1,.9,1c-1.9,1.4-3.7-.9-5.6,0l-.9-.6c-1-.6-1.7-1.8-3.1-1.9C62.8,80.1,62.2,81.1,61.5,80.4Z" fill="#e5e5e5"/>
      <path id="Trazado_125" data-name="Trazado 125" d="M122.2,74.8a10.425,10.425,0,0,1-4,2.5c-.5,0-1-.1-1.2-.6-.3-.6.1-1.1.3-1.8-1.5.1-3.1.8-4.5,0-.9-.5-1.4.3-2,.6-1.1.5-2.1,1.4-3.5.8a12.344,12.344,0,0,0-7.6-.1c-3.5,1.2-6,.4-8.2-2.3-.7-.5-1.5-1-2.2-1.5-1.5-1.3-2.5-2.7-1.8-4.8,1.4-.4,2.5.4,3.7.9a38.268,38.268,0,0,0,7.3,2.2A13.207,13.207,0,0,0,111,67a5.936,5.936,0,0,1,1.8-1.3c1.6-.3,3-2.1,4.9-.9,0,.9-.6,1.3-1.2,1.7-.3.2-.7.4-1.4.8a1.806,1.806,0,0,1,1.7.2c1.7,2.4-.6,3.1-2,4.2,1.7.4,2,.4,3-.7,1.2-1.3,2.3-2.7,4.3-2.6.8,0,.2-1.2,1.1-1.2,3,.9,3.6,1.7,2.3,3.5-2.6-.4-3.1,1.2-3.1,3.3C122.5,74.5,122.4,74.7,122.2,74.8Z" fill="#f8f8f8"/>
      <path id="Trazado_126" data-name="Trazado 126" d="M107.7,76.3c.8-.3,1.5-.6,2.3-.9,1.2-.6,2.1-1.9,3.9-.7,1.2.8,3-.5,4.6-.5.1,1.1-1.4,1.4-1.2,2.6-.9,1.5-.9,1.5-3.4,1.1.8.9,2.4-.6,2.8,1-1.5.2-3.4-.6-4.6.6-2.3,2.4-4.9,1.3-7.5,1.4a.349.349,0,0,0-.1-.2c.1-.2,0-.4-.2-.3a24.557,24.557,0,0,1-6.8,2.9c2.5-.9,2.5-.9,2.6,3.3-1.2,1.4-2.9.4-4.1.8-2.6.7-5.1.5-7.7.8-.9.1-2,.5-2.6-.2-1.6-1.8-3.9-2.4-5.9-3.2-2.2-.9-4.7-.6-6.8-1.7-.3-.2-.6-.3-.9-.5a.483.483,0,0,1,0-.7,3.61,3.61,0,0,1,2.7-.1c10.3,2.5,20,.5,29.3-4.2C105.3,76.8,106.3,76.1,107.7,76.3Z" fill="#d8d8d8"/>
      <path id="Trazado_127" data-name="Trazado 127" d="M125.3,61.4c.3.8,1.5,1.4.6,2.5-.3,0-.5-.1-.8-.1-1.7.1-2.3-.8-2.5-2.4-.4-4-.9-7.9.7-11.8.5-1.2.2-2.5.4-3.7a12,12,0,0,1,1.3-3.1c.4-.7.7-1.8,1.6-1.5s.7,1.4.6,2.2c0,.4-.2.8,0,1.2-.2,2-2.1,4,0,6.1v.5c-2.4,2-2.5,4.6-1.7,7.4.1.3.5.4.7.6C126.8,60.3,124.7,60.2,125.3,61.4Z" fill="#e0e0e0"/>
      <path id="Trazado_128" data-name="Trazado 128" d="M100.2,86.4a2.46,2.46,0,0,1-.3-3.3c-1.6-.1-2.9,1-4.4.6,3.4-.9,6.5-2.8,10.2-4.4-.5.8-.8,1.2-1,1.6a7.086,7.086,0,0,0-2.8,3.4A8.7,8.7,0,0,1,100.2,86.4Z" fill="#9e9e9e"/>
      <path id="Trazado_129" data-name="Trazado 129" d="M116.7,78.8c-.8-.9-2.1-.1-3.2-.8,1.3-.4,2.9.2,3.7-1.3.3.2.7.4,1,.6.3.5.6,1,1,1.7C118.3,78.9,117.5,78.9,116.7,78.8Z" fill="#cbcbcb"/>
      <path id="Trazado_130" data-name="Trazado 130" d="M68.1,20.1a9.384,9.384,0,0,1,6.1,3c-.1,1.5-1.3,1.7-2.4,2.1-1.4-.2-1.8.4-1.3,1.7-1.5,1.2-3.4,1.5-5,2.3-3.3,1.7-6.7,3.3-10.3,2.3,1.9.2,3.7,1.8,6,2.1a12.965,12.965,0,0,0,5.2.2c.9-.1,1.8-.4,2.6.4a.616.616,0,0,1-.1.7,47.509,47.509,0,0,0-10.3,9.2,8.321,8.321,0,0,1-4.9.7c-1.6.3-.1,1.6-.7,2.2-.2.9-.4,2-1.7.9-1.2-2.6-3.2-4.9-3.5-7.9-.2-1.5-1.5-2.8-1.2-4.5-.1-2.3.7-3.6,3.2-2.9a.947.947,0,0,0,1.1-.3c1.8-3.7,5.1-5.5,8.7-6.9.8-.3,1.9-.5,1.8-1.5-.3-2.5,1.4-2.7,3-3C65.7,20.5,66.8,19.9,68.1,20.1Z" fill="#353535"/>
      <path id="Trazado_131" data-name="Trazado 131" d="M57.4,59.7c-1.3-.8-.4-3.2-2.4-3.5a14.517,14.517,0,0,1,7.1-7.9c-.4.2-.9.8-1.5.4s-.2-1.1.1-1.6c.5-1,1.6-1.8,1.3-3.1a41.253,41.253,0,0,1,5.2-3.3c.8-.4,2.4-2,2.4.8,0,.9,1,.6,1.6.7.8.2,1.9,0,2,1,.2,1-.9,1.3-1.6,1.7-2,1.1-4.1,2.3-6.1,3.5-1.2.7-2.1,1.4-.1,2.6,1.7,1.1.1,1.8-.7,2.5-.2.1-.5,0-.7,0-1.6-1.6-2.3-.2-2.9,1-.8,1.6-.7,3.4-1.2,5.1C59.3,61.2,58.8,61.2,57.4,59.7Z" fill="#9a9a9a"/>
      <path id="Trazado_132" data-name="Trazado 132" d="M64.5,71.8c-.6-.6,1.7-2.4-.9-2.1a4.639,4.639,0,0,0-2.4-3.1c-1.9-1.1-2.2-3.5-3.3-5.2a3.057,3.057,0,0,0,2.9-1.8,9.611,9.611,0,0,1,1.4-2.1c.3-.4.6-.9,1.2-.7.5.2.6.7.7,1.2.2,2.2,0,4.5.2,6.8.1.6.2.5.6.4,1.2,1.1,1.2,2.6,1.6,4a3.127,3.127,0,0,1-.4,1.9c-.3.7-.5,1.5-1.2,1.9C64.2,72.8,64.2,72.4,64.5,71.8Z" fill="#9f9f9f"/>
      <path id="Trazado_133" data-name="Trazado 133" d="M64.6,65.3a1.7,1.7,0,0,1-.1.7c-.4.7-.4.1-.4-.2-.9-2.8-.4-5.6-.6-8.7a6.452,6.452,0,0,0-2.4,3.3c-.8,1.8-1.7,1.9-3.1.9-.3-.5-1-.9-.5-1.7.7.5,1.5,1.4,1.8-.3.2-1.4.6-2.8.8-4.1a4.694,4.694,0,0,1,1.6-2.7c1.3-1.2,2.2-1.2,2.4.8.1.3,0,.9.1.9,2-.3,1.5.8,1.2,1.9-.9,2.2-.7,4.4-.5,6.6C65,63.6,65.3,64.5,64.6,65.3Z" fill="#646464"/>
      <path id="Trazado_134" data-name="Trazado 134" d="M62,44.2c1.1.1.6.7.4,1.2-.5.9-1.2,1.8-2.2,3.3,1.6-.9,2.5-1.5,3.5-2,.1.2.3.3.4.5a35,35,0,0,0-9,9c-.4.1-.9.2-.9-.4.4-1.1.4-2.4.9-3.5a41.515,41.515,0,0,1,2.9-6C58.8,44.8,59.9,43.5,62,44.2Z" fill="#6c6c6c"/>
      <path id="Trazado_135" data-name="Trazado 135" d="M43.9,25.7v2.5c-1.4-4.5-2.8-9-1.1-13.8.8-2.1,1.8-2.6,4.2-1.9-2.4-.3-2.7,1.4-3.1,3.1A56.784,56.784,0,0,0,43.9,25.7Z" fill="#e6e6e6"/>
      <path id="Trazado_136" data-name="Trazado 136" d="M53.9,53.8l-2.4-5.1c1.3-.1,2,1,2.9,1.6a2.092,2.092,0,0,1,.4.6,2.054,2.054,0,0,1,0,1.1C54.6,52.6,54.6,53.4,53.9,53.8Z" fill="#d5d5d5"/>
      <path id="Trazado_137" data-name="Trazado 137" d="M54.5,50.8c-1.2-.4-2-1.4-3-2.1,0-.3-.1-.6-.1-.9,1.3.6.9-.6,1.1-1.1A3.824,3.824,0,0,1,54.5,50.8Z" fill="#757575"/>
      <path id="Trazado_138" data-name="Trazado 138" d="M44.9,32.3c1.1.7.7,2.2,1.5,3,.5.9,1.2,1.8.6,2.9A11.711,11.711,0,0,1,44.9,32.3Z" fill="#bbb"/>
      <path id="Trazado_139" data-name="Trazado 139" d="M53.9,53.8c0-.7-.2-1.5.5-2.1a1.012,1.012,0,0,1,.7.4,2.186,2.186,0,0,0,.3.5c-.4,1-.9,2.1-1.3,3.1C54,55.1,54,54.5,53.9,53.8Z" fill="#9a9a9a"/>
      <path id="Trazado_140" data-name="Trazado 140" d="M47,38.2c-.2-1-.4-2-.6-2.9l.2-.1c.2-.1.3-.1.4.1.2,1.6,1.1,3,.9,4.6C47.6,39.3,47.3,38.8,47,38.2Z" fill="#5e5e5e"/>
      <path id="Trazado_141" data-name="Trazado 141" d="M47,35.2a.6.6,0,0,1-.4-.1,7.106,7.106,0,0,0-.4-2,2.092,2.092,0,0,1,1.7-3c3.1-.8,5.3-3.8,8.1-4.5,4.4-1,5.1-5.7,8.6-7.1,1,.8,2.5.6,3.5,1.5a12.144,12.144,0,0,1-5,1.5c-.9.1-1.7.2-1,1.5.8,1.5-.3,2.1-1.5,2.5-2.4.7-4.8,1.3-6.2,3.7a1.445,1.445,0,0,1-1,.7c-1.6,0-2.1.5-1.7,2.3.3,1.2-.8,1.7-2,1C47.6,32.1,47,33.2,47,35.2Z" fill="#4a4a4a"/>
      <path id="Trazado_142" data-name="Trazado 142" d="M43.9,25.7a22.95,22.95,0,0,1,0-10.1Z" fill="#9f9f9f"/>
      <path id="Trazado_143" data-name="Trazado 143" d="M55.4,52.6q-.3-.15-.3-.3c-.5-2.2,1-3.9,1.4-5.9a5.171,5.171,0,0,1,.6-1.3,9.956,9.956,0,0,1,1.5-1.4c2.8-3.8,6-7.2,10.4-9.2a3.552,3.552,0,0,1,.9-.4c1.1-.1,2.9,1.2,2.8-1.4-.7.3-2,.9-2.6.3-1.5-1.3-3.1-.6-4.7-1a1.374,1.374,0,0,1-.8-.5c-.2-1.2.9-1.9.9-3,1.7-.7,3.4-1.3,5.1-2,1.7-1.1,3.6-.9,5.5-.8a9.2,9.2,0,0,0,3.3-.2c.3-.3-.3-.6-.1-.4,0,0-.1.4-.2.4-2.8.5-5.6,0-8.3.4a1.294,1.294,0,0,1-1.2-.5c.4-1,1.5-.3,2.1-.8A4.446,4.446,0,0,0,74.3,23c.6-.1,1.2-.6,1.9-.2,1.9,1.2,2,0,1.9-1.7,2.2,1.3,3.4,3.5,5.8,4.1.4-1.2.8-2.3,1.2-3.5a1.765,1.765,0,0,1,.8-.9c.5-.1.6.4.7.8,1.7,4.4,1.7,4.4,5.9,2.2,1.8-.9,3.3-2.2,5.3-2.7.2.4.5.9.2,1.4,1.2.5,2.4.1,3.6.2.8.1,1.7,0,1.6,1.3-.2.6-.9,1.2-.4,1.8.4.5,1.1,0,1.6-.1,1.6-.2,3.2-2.1,4.6-1.1,1.1.9-.7,2.7-.4,4.2a10.8,10.8,0,0,1,0,1.8c1.2-.1,1.4-1.2,2-1.7,1.6-1,2.6-.5,2.9,1.4a9.747,9.747,0,0,1,.3,3.5c.3-.9.2-1.9,1.3-1.8v3.4c-.9.6-1.4,1.6-2.5,2a3.233,3.233,0,0,1-1.7-.3c-1.3-.5-2.2-.3-2.6,1.3-1,3.5-4.4,4.7-7.4,4.8-1.1,0-2.1.4-3.2.3-.9-.1-1.6-1.4-2.7-.6.2.9,1,.8,1.6,1,1.6.8,2.5,2,1.9,3.8a2.232,2.232,0,0,0,.2,2.1c1.2,1.5.4,2.2-1.1,2.6a5.019,5.019,0,0,1-1.2.2c-3.2-.4-5.2,1-6.2,3.9-.2.2-.4.5-.6.4A3.14,3.14,0,0,0,85.3,58c-1,1.3-3,1.8-2.8,4a1.716,1.716,0,0,1-1.2,1.4c-1.7.4-3.6.1-5.1,1.3-.4.4-.1.9,0,1.4a1.486,1.486,0,0,1-.2.9,10.707,10.707,0,0,0-1.5,2.2,5.814,5.814,0,0,1-1.8,1.7c-.8.4-1.6.8-2.5.2a1.284,1.284,0,0,1-.4-1c.2-1-.4-1.9-.6-2.7a3.247,3.247,0,0,1-.1-1.3,6.309,6.309,0,0,0,3-.7c.8-.6.9-2.6.9-2.9-.1-1.9.5-3.8-.4-5.6a3.044,3.044,0,0,0-4.6.2c-1.3,1.3-2.5,2.8-.9,4.7A21.917,21.917,0,0,1,70,69.9c-1.5,1-3-.1-3.7-1.1-1-1.2-.8-2.8-1.6-4a40.5,40.5,0,0,1-.5-7,4.208,4.208,0,0,1,1-3c.6-.8,1.8-.1,2.4-1-.8-.8-2.2-.1-2.9-1,.4-.5.8-1.1,1.2-1.6-.1-.1-.1-.3-.2-.4-.9-.2-2-.1-2.3-1.1-.3-1.1.8-1.8,1.7-2.2,2.7-1.6,5.4-3.1,8.3-4.7-1-.8-1.8-.5-2.6-.5-2.2-.1-2.3-.4-1.4-2.4-2.7.8-4.5,3.1-7.1,3.9-3,.4-4.1,2.7-5.1,5.1C56.5,50.4,55.9,51.5,55.4,52.6Z" fill="#d1d1d1"/>
      <path id="Trazado_144" data-name="Trazado 144" d="M123.4,23.8c.1,0,.3-.1.4-.1a1.807,1.807,0,0,1,.1,2.1c-2,4.8-3,10.1-5.2,14.8-.1.3-.4.6-.1.9,1.9,1.5.4,3,0,4.5-.4,1.7-1.7,3-2,4.8-.2,1.1-1.6,1.6-2.9,1.5-.4,0-.2-1.5-1.1-.4a1.208,1.208,0,0,1-1.8-.2c-.5-.7.2-1.2.7-1.6a17.826,17.826,0,0,0,2.1-2.7c.8-1.2,1.3-2.7,2.8-3.4-1.1-1.3-3.3-.5-3.9-2.4a1.854,1.854,0,0,1,.2-.7c1.4-1,2-2.6,3-3.9a6.6,6.6,0,0,1,1.6-2.8A37,37,0,0,0,123.4,23.8Z" fill="#d7d7d7"/>
      <path id="Trazado_145" data-name="Trazado 145" d="M115.6,37.1c-.5,1.7-.7,3.6-2.9,4.1a1.493,1.493,0,0,0-.7-.3c-1-.1-2.4,1-2.8-.5-.3-1.2,1.1-1.9,2.1-2.5.4-.3,1-.2,1.3-.6.9-.4,1.4-1.5,2.5-1.5-.1,1.3-1.7,1.6-2,2.9C114.2,38.3,114.5,37,115.6,37.1Z" fill="#888"/>
      <path id="Trazado_146" data-name="Trazado 146" d="M115.2,32.2c-1,.3-.5,1.5-1.4,2.1-.2-1.1-.5-2.1-.7-3.1-.3-1.3-.5-2.7-2.4-2.1,1.5-1.8,3-1.6,4,.5C115.1,30.5,116.3,31.2,115.2,32.2Z" fill="#5a5a5a"/>
      <path id="Trazado_147" data-name="Trazado 147" d="M103.2,24.2c-1.4-1.6-3.3-1-5-1a.349.349,0,0,1-.2-.1.756.756,0,0,1,.1-.4c1.5-.1,2.9-.1,4.4-.2C104.3,22.3,103.8,23.2,103.2,24.2Z" fill="#6d6d6d"/>
      <path id="Trazado_148" data-name="Trazado 148" d="M113.6,52.2c3-.3,2.5-3.2,3.7-4.8.8-1,.9-2.5,1.5-3.7.8-1.5-1.1-1.6-1.4-1.9,2.7-6,4.3-12.1,6.3-18.1.6-2.2,2.1-4,3-6,.1-.1.3-.2.4-.3.9-.8,1.6-2.3,2.8-1.7,1.3.6,1.4,2.3,1.4,3.8-.1,2.1-.3,4.1-.5,6.2a1.625,1.625,0,0,1,.3,1.5c-.8,3.9-1.5,7.9-3.4,11.5-1.3,2.2-2.6,4.4-3.8,6.6-.6,1.8-1.9,3.1-3,4.5a14.955,14.955,0,0,0-2.3,4.1,11.785,11.785,0,0,0-2.4,2.6c-2.9.4-2.7-1.9-3.2-3.6C113,52.4,113.2,52.2,113.6,52.2Z" fill="#f8f8f8"/>
      <path id="Trazado_149" data-name="Trazado 149" d="M130.4,26.2c.1-.5.1-.9.2-1.4.2-.3.4-.6.8-1.3a12.742,12.742,0,0,0,1.1,5.2l.1.1a1.274,1.274,0,0,1,.5,1.1c-.6,3.2.1,6.5-.8,9.7a.63.63,0,0,1-.8.3c-.7-1.8-.6-3.7-1-5.5A25.043,25.043,0,0,0,130.4,26.2Z" fill="#656565"/>
      <path id="Trazado_150" data-name="Trazado 150" d="M64.5,71.8c.2.3.3.7.5,1a30.6,30.6,0,0,0,2.7,5.8.849.849,0,0,1-.7.8C64.1,76.9,63.4,74.9,64.5,71.8Z" fill="#bfbfbf"/>
      <path id="Trazado_151" data-name="Trazado 151" d="M67,79.4l.5-.5c2,.2,3.3,1.5,4.6,3v.6C70,82,68.6,80.7,67,79.4Z" fill="#adadad"/>
      <path id="Trazado_152" data-name="Trazado 152" d="M118.2,53.8a9.388,9.388,0,0,1,2.4-4.5,28.659,28.659,0,0,0,3.1-4c.3,0,.4.3.5.5a11.631,11.631,0,0,1-.9,5.8c-1.5,3.5-.1,7.2-.1,10.8,0,1.9,1.9-.1,2.4,1.1-1.4,2.2-3.7,1.1-5.6,1.4-.7-.2-1.3-.8-2.1-.4a14.407,14.407,0,0,0-4.8,2c-2.6,2.5-5.3,4.8-9,5.3-1.9.3-3.8.6-5.6-.2a2.124,2.124,0,0,1,.1-2.3,1.718,1.718,0,0,1,1.7,0c1,1.2,4,.8,5.4-.8.5-.7,1.9-1.3.8-2.5-2.6-.6-2.9-2.7-3.4-4.8-.1-.4-.1-.7-.2-1.1.7-2.9-.8-4.7-3-6.2-.8-.5-1.9-.6-2.4-1.6.3-.5,2-.4.6-1.5a1.64,1.64,0,0,1-.7-2.1c.9-2.7.4-3.6-2.3-4.2-.5-.1-1.2.1-1.5-.6-.2-.7.3-1.1.7-1.5a1.274,1.274,0,0,1,1.8-.1c1,1,2,1.4,3.2.3.4-.4.9,0,1.4.3.4.3,1,.7,1.2,0,.4-1.4.7-1.6,1.4-.2.2.3.6.1.9-.1,1.1-1.5,3.6-1.9,3.5-4.5,0-1.4,1.2-1.9,2.5-1.5a21.849,21.849,0,0,1,2.3.9c-.8,1.4-2.6,1.7-3.1,3.4,1,.5,1.6-.2,2.4-.5,2-.8.9.5.8,1.1h0c-.7,1-1.3,2,.6,2.4a1.425,1.425,0,0,1,.6,1.2c-.6,1.1-.6,1.5-.1,3-1.5,1.4-2.5,3.3-4.5,4.2a1.421,1.421,0,0,0-.6-.2c.2.4.6.3.9.4,1.2.2,2.4-.2,3.5.6.1.6,1.4.2,1,1.1-.8,2.1,1,1.9,2,2.5,1.1,1,.1,2.2.3,3.3.1.3.1.7.5.7.3,0,.8-.3.7-.5C116.7,57.6,118.7,55.8,118.2,53.8Z" fill="#c9c9c9"/>
      <path id="Trazado_153" data-name="Trazado 153" d="M72.1,81.8a27.952,27.952,0,0,1-4.6-3c-1.7-1.7-2.9-3.5-2.6-6.1a3.077,3.077,0,0,1,.6-1.9c1.6-.8,3,.5,4.5.4.8-.2,1.6-.3,2.5-.5,1.3-.9,1.8.3,2.4,1.2.2-1.3-1.7-1.5-.9-2.8.2-.9.3-1.8,1.5-1.9,1.6.5,2.7-.5,3.9-1.2a10.374,10.374,0,0,1,8.2,1.7,7.439,7.439,0,0,0,2,4.4,12.715,12.715,0,0,1-3.8,4.5,21.9,21.9,0,0,0-5.2.8c1.7-1,4.5-.3,7-1,1.4-.4,2.9-.6,3.3-2.3a1.555,1.555,0,0,1,.6-.8,13.721,13.721,0,0,1,1.8,1.6,3.622,3.622,0,0,0,4.7,1c2.8-1.2,5.7-.5,8.6-.6.6,0,.8.4.9,1-6.4,3.5-13,6.2-20.3,7a37.394,37.394,0,0,1-13.3-1.2C73.4,82,72.7,81.9,72.1,81.8Z" fill="#f8f8f8"/>
      <path id="Trazado_154" data-name="Trazado 154" d="M87.6,67.9c-2.8-.4-5.5-2.2-8.5-1-1.1-.7-2.4.1-3.6-.5,0-.6-1.5-.7-.5-1.6a14.849,14.849,0,0,1,7.3-.3s-.2-.5-.2-.2c0,.1-.1,0-.2,0-.5-.1-.9-.3-.9-.9.3-.4.8-.8.8-1.2,0-3.5,3.4-4.2,5.2-6.2.8-.8,2.1.9,2.4.7.5.2,1.3.3,1.4,1,.1,1.4-.3,2.8-.3,4.1-.3,1.5-.2,2.9,1.7,3.2a1.895,1.895,0,0,1,2.4,2c.8,1.6,3.1.5,3.8,2.2,0,.7.5,1.4,0,2.1C94.6,71.2,91.2,69.2,87.6,67.9Z" fill="#cacaca"/>
      <path id="Trazado_155" data-name="Trazado 155" d="M123.3,67.2v.6c-.1.7.3,1.7-1,1.5-1.7-.3-2.6.9-3.5,2a4.309,4.309,0,0,1-1.9,1.6c-1.1.4-2.4.8-2.9-.3s.9-1.7,1.8-1.9c2-.5.6-1.8.9-2.8,1-.9,2.4-.8,3.6-1.1h1.5C122.3,66.8,123,66.3,123.3,67.2Z" fill="#f8f8f8"/>
      <path id="Trazado_156" data-name="Trazado 156" d="M86,76.3a11.551,11.551,0,0,1,3.6-4c.9,0,1.4.7,2,1.1a4.1,4.1,0,0,1-.1,1.1,5.015,5.015,0,0,1-5,2.3C86.3,76.6,86.1,76.5,86,76.3Z" fill="#bbb"/>
      <path id="Trazado_157" data-name="Trazado 157" d="M122.2,67.2a6.6,6.6,0,0,0-1.4.1c-.8-.5-1.6.1-2.4,0s-1.9.5-2.1-.9c.4-.4.9-.7,1.3-1.1.5-.4,0-1.1.6-1.5.9-.9,1.1,0,1.5.5C119.7,66,122.4,65.4,122.2,67.2Z" fill="#7e7e7e"/>
      <path id="Trazado_158" data-name="Trazado 158" d="M116.3,66.4c1.4.9,3.1-.2,4.5.9-1.4.2-2.7.4-4.1.6-.8.1-1.7.3-2.8.5A4.872,4.872,0,0,1,116.3,66.4Z" fill="#d8d8d8"/>
      <path id="Trazado_159" data-name="Trazado 159" d="M125.2,70.8c-1.5.8-2.1,2.3-3,3.5-.6-.9.6-2-.4-2.8.6-.7,1.6-.8,2.4-1.2A.876.876,0,0,1,125.2,70.8Z" fill="#c8c8c8"/>
      <path id="Trazado_160" data-name="Trazado 160" d="M118.2,63.8c0,.6.1,1.2-.6,1.5-1.7-.7-2.8,1-4.4,1C114.4,64.5,116.5,64.6,118.2,63.8Z" fill="#a4a4a4"/>
      <path id="Trazado_161" data-name="Trazado 161" d="M130.6,27.1c1.9,2.6,1,5.5.7,8.3.6,2-.7,3.6-1.1,5.4-.1.3-.3.7-.4,1-1.8.5-1.9-.8-2.1-2,.1-.5.5-1.1-.5-1A82.031,82.031,0,0,0,130.6,27.1Z" fill="#484848"/>
      <path id="Trazado_162" data-name="Trazado 162" d="M127.2,38.7c.4,0,1.2-.8,1,.4a12,12,0,0,0-.4,4.6l-.6.9c-1-.8-.2-2-.7-3.3l-2.2,4.4-.5-.5C124.9,43.1,126,40.9,127.2,38.7Z" fill="#adadad"/>
      <path id="Trazado_163" data-name="Trazado 163" d="M127.8,43.8c-1.2-1.6-.5-3.1.4-4.6.1,1.1-.1,2.5,1.6,2.6C129.6,42.9,128,42.6,127.8,43.8Z" fill="#797979"/>
      <path id="Trazado_164" data-name="Trazado 164" d="M122.2,67.2c-.5-1-1.6-1-2.4-1.4-1.4-.6-.7-1,0-1.6,2-.3,4.1.1,6-.9,0,.2.1.3.2.5a5.57,5.57,0,0,1-2.6,3.4C122.9,66.7,122.5,67.3,122.2,67.2Z" fill="#a4a4a4"/>
      <path id="Trazado_165" data-name="Trazado 165" d="M125.3,61.4c-.4.1-.7.2-1.3.4.3-1.4,1.6-1.6,2.2-2.5,1-.5,1.7-1.6,3.1-1.3C128.4,59.6,126.5,60.1,125.3,61.4Z" fill="#c9c9c9"/>
      <path id="Trazado_166" data-name="Trazado 166" d="M64.6,31.2a3.508,3.508,0,0,0,.8.5c1.3.5,3.1-1.1,4.2.9.2.3,1.7-.1,2.6-.2s1.7-.4,2.7-.6c-.4,1.6-2,1.1-2.6,2,0,.9,1.3.8,1.3,1.8-1.6-.3-3.2-.7-4.8-1-1.6-.8-3.2.4-4.8.1-1-.2-2.1,0-3.1-.5A4.3,4.3,0,0,1,64.6,31.2Z" fill="#929292"/>
      <path id="Trazado_167" data-name="Trazado 167" d="M64.6,31.2l-3.6,3c-2.5-.2-4.2-2.1-6.6-2.8a23.048,23.048,0,0,0,11-2.8C66.3,29.9,65.4,30.5,64.6,31.2Z" fill="#6d6d6d"/>
      <path id="Trazado_168" data-name="Trazado 168" d="M57.5,45.2c-.2.3-.3.7-.5,1-1.1,1.4-.6,3.6-2.5,4.5h0c-.7-1.4-1.3-2.7-2-4.1,0-.7-.1-1.4-.1-2.1,0-1.1.6-.6,1.1-.4.9.7,1.8.2,2.8.3C56.8,44.6,57.5,44.3,57.5,45.2Z" fill="#cfcfcf"/>
      <path id="Trazado_169" data-name="Trazado 169" d="M71.6,24.7c-.5.2-.9.5-1.6.8,2.7.3,5.3-.6,7.8,0,1.6.4.4-1.2,1.1-1.6.5.7,1.3,1.3,1.5,2.3-3.4-.2-6.7-.6-9.9.3-.1-.9-2-.3-1.5-1.4C69.4,24.3,70.7,24.7,71.6,24.7Z" fill="#898989"/>
      <path id="Trazado_170" data-name="Trazado 170" d="M57.5,45.2c-1.1-1.2-2.9.3-4-1,1.7.4,3.3-.5,5-.4A1.611,1.611,0,0,1,57.5,45.2Z" fill="#888"/>
      <path id="Trazado_171" data-name="Trazado 171" d="M64.5,53.3h1a3.967,3.967,0,0,1,3.2.7.471.471,0,0,1-.1.6,3.4,3.4,0,0,1-3.6.7c-.1-.3.6-.9-.1-.9-.6,0-1.1.7-1.8,1.2a3.335,3.335,0,0,1,.8-2.4A1.759,1.759,0,0,0,64.5,53.3Z" fill="#9c9c9c"/>
      <path id="Trazado_172" data-name="Trazado 172" d="M70.1,71.3c-1.6,1.2-3-.3-4.5-.4.2-.5.4-1.1.6-1.6,1,.2,1.7,1.4,2.9,1a.668.668,0,0,1,1,0Z" fill="#bfbfbf"/>
      <path id="Trazado_173" data-name="Trazado 173" d="M54.5,50.8c1.1-1.3,1.3-3.2,2.5-4.5-.1,2.2-1.6,4-2,6l-.6-.6A2.769,2.769,0,0,1,54.5,50.8Z" fill="#757575"/>
      <path id="Trazado_174" data-name="Trazado 174" d="M90.6,57.2c-.6.4-1,.4-1-.4.7-5,4.6-4.5,8.1-4.7,2.4.3,4,1.8,5.5,3.6a4.319,4.319,0,0,1,.5,4.1c-1.1,1.3-1.3.1-1.6-.6A6.161,6.161,0,0,0,97,55C94.3,54.3,92.6,56.3,90.6,57.2Z" fill="#111"/>
      <path id="Trazado_175" data-name="Trazado 175" d="M93.1,45.2c1.7-.1,3.3.1,3.6,2,.4,2-1.2,2.5-2.6,3-.2.1-.3,0-.5.1-1.3.5-2.8.9-4,0-.9-.7-.5-1.8-.1-2.8C90.3,46,91.2,44.8,93.1,45.2Z" fill="#303030"/>
      <path id="Trazado_176" data-name="Trazado 176" d="M75,51.5c0,1.4-.3,2.4-2.1,2.3-2.1-.1-3.8-1.3-3.9-2.8,0-1.4,1.6-3.2,2.9-3.2A3.866,3.866,0,0,1,75,51.5Z" fill="#353535"/>
      <path id="Trazado_177" data-name="Trazado 177" d="M68.5,66.3c-.6.2-.9-.6-1.5-1.5a4.387,4.387,0,0,1-.3-2.6s1.3-4.9,3.9-5c.8,1.7-1,2.7-1.1,4.2A22.264,22.264,0,0,0,69,65C69.4,66.7,69.4,66,68.5,66.3Z" fill="#fff"/>
      <path id="Trazado_178" data-name="Trazado 178" d="M69,61.3c-.3-1.6,1.2-2.6,1.4-3.9,1.3-.4,1.7.9,2.5,1.3a1.272,1.272,0,0,1,.1-1.8c1,2.6.7,5.3.2,7.9-.2,1-1.1,2-1.8.1C71.3,63.2,70.8,61.8,69,61.3Z" fill="#363636"/>
      <path id="Trazado_179" data-name="Trazado 179" d="M73,56.9v1.9c-1.3.1-1.7-1.2-2.6-1.5-2.6.6-2.8,3-3.7,4.9-.3,0-.9.2-1.1-.2-.5-1.6.6-4.5,2.5-5.7C69.9,55.2,71.6,55.3,73,56.9Z" fill="#131313"/>
      <path id="Trazado_180" data-name="Trazado 180" d="M81,63.4c.7.7,2,.3,2.5,1.9-2.9-1-5.7.2-8.4-.4A7.048,7.048,0,0,1,81,63.4Z" fill="#7a7a7a"/>
      <path id="Trazado_181" data-name="Trazado 181" d="M69,61.3c1.7-.6,2.8-.3,2.5,1.8a9.634,9.634,0,0,0,0,1.7c-.9-2.1-1.5,1.2-2.3,1.4A5.993,5.993,0,0,1,69,61.3Z" fill="#707070"/>
      <path id="Trazado_182" data-name="Trazado 182" d="M74.8,66.6c1.5-.1,3.2-1.8,4.4.6-1.5.5-2.6,3.6-4.4.6A2.4,2.4,0,0,1,74.8,66.6Z" fill="#3a3a3a"/>
      <path id="Trazado_183" data-name="Trazado 183" d="M74,69.3c0,.7.5,1,1,1.3.6.3,1.2.7.8,1.5-.3.5-.6,1.1-1.3,1.1-1.1,0-.6-.9-.6-1.5,0-1-.9-.8-1.5-.9A5.624,5.624,0,0,1,74,69.3Z" fill="#f8f8f8"/>
      <path id="Trazado_184" data-name="Trazado 184" d="M113.2,43.6c-.7-.1-1.4.4-2.2,0a2.591,2.591,0,0,1,1.7-2.4c.1,1.3,1.2,1.2,2,1.4a9.092,9.092,0,0,1,3.2,1.5c-2.1.5-3,2-3.7,3.6-.2.2-.4.2-.7,0-.2-1.7-1.2.2-1.7-.5-.2-1.4,1.5-1.5,1.9-2.4C114.1,44.1,113.9,43.7,113.2,43.6Z" fill="#828282"/>
      <path id="Trazado_185" data-name="Trazado 185" d="M113.5,47.7h.7a13.991,13.991,0,0,1-3.2,3.7c.8.6,1.4.1,2.1-.1,1.1-.4.6.5.6.9l-.5.5c-1.3-.1-2.7.5-3.9-.4-.2-.1-.2-.2-.2-.3l.1-.1C110.7,50.5,112.1,49.1,113.5,47.7Z" fill="#8f8f8f"/>
      <path id="Trazado_186" data-name="Trazado 186" d="M118.2,53.8c.9.6.4,1.7.9,2.5-2.2,1-.8,2.6-.6,4-1.2-.2-1.2,1.5-2.1,1.4-.8-.1-.8-1.1-.8-1.9.1-1.2.3-2.3.4-3.5C116.5,55.1,116.7,53.9,118.2,53.8Z" fill="gray"/>
      <path id="Trazado_187" data-name="Trazado 187" d="M97.1,54.3c2.9.7,5,2.1,5.6,5.2.1.7.6.3,1,.3v1a2.516,2.516,0,0,1-.3,1.9c-.5.5-1,0-1.4-.1-.8,0-.8.8-1.2,1.2-1.1,1.2-2.3,2.3-3.5.1-.4-1.4,0-2.9-.4-4.3-.1-.2-.3-.4-.4-.6a1.275,1.275,0,0,1,0-1.2c-.2.2-.3.6-.5.8a9.5,9.5,0,0,0-1,1.7c-1.4,1.3-1.6.3-1.8-.9C93.5,57,94.5,55,97.1,54.3Z" fill="#333"/>
      <path id="Trazado_188" data-name="Trazado 188" d="M103.1,62.7c.1-.7,0-1.4.6-1.9.8,1.8.6,4.4,3.5,4.5-.8,2.9-3.8,4.8-6.5,4H98.6c-1.4-.7-3.1-.5-4.3-1.5-.6-.6.3-.4.5-.7,1.2-1.4,2.5-.7,3.8-.3,1.7.8,2.6-.1,3.2-1.5C102.2,64.4,102.3,63.4,103.1,62.7Z" fill="#d1d1d1"/>
      <path id="Trazado_189" data-name="Trazado 189" d="M100.7,69.4c2.9-.2,4.9-1.8,6.5-4,.6-.3,1.2-.5.9.6a6.288,6.288,0,0,1-7.6,4.3C99.5,70,100.8,69.7,100.7,69.4Z" fill="#979797"/>
      <path id="Trazado_190" data-name="Trazado 190" d="M107.2,46.5c0,.8-.1,1.7-1.1,1.6a1.667,1.667,0,0,1-1.4-1.8,1.244,1.244,0,0,1,1.1-1.4C106.9,44.8,107.1,45.5,107.2,46.5Z" fill="#d1d1d1"/>
      <path id="Trazado_191" data-name="Trazado 191" d="M109.3,51.9a.6.6,0,0,1-.1.4c-.6.2-1.3.8-1.5-.3-.1-.5-.3-1.3.5-1.4C109.1,50.4,109.1,51.2,109.3,51.9Z" fill="#d1d1d1"/>
      <path id="Trazado_192" data-name="Trazado 192" d="M113.2,43.6c.6-.5,1.5-.7,1.8.1.3.7-.7.9-1.2,1.1A1.218,1.218,0,0,1,113.2,43.6Z" fill="#d1d1d1"/>
      <path id="Trazado_193" data-name="Trazado 193" d="M88.2,77a4,4,0,0,1-2.6.4c-1.7.1-3.5-.3-5.1.7-.5.3-1.1.3-1.6-.6,2.5-.3,4.7-1.4,7.2-1.3l.2.2C86.8,76.9,87.7,76.2,88.2,77Z" fill="#bbb"/>
      <path id="Trazado_194" data-name="Trazado 194" d="M88.2,77c-.6-.3-1.5.2-2-.5,2.2.4,3.8-.8,5.4-2C91.4,76.5,89.6,76.5,88.2,77Z" fill="#636363"/>
      <path id="Trazado_195" data-name="Trazado 195" d="M98.8,67.4c-1.3-.4-2.6-1-4-.3-.5-.5-1.1-1-1.1-1.8-.7-.9.1-1.3.6-1.8a8.379,8.379,0,0,0,2.1-2.1.864.864,0,0,1,.6-.3c.9.7,0,1.9.7,2.6,1.5,2.1,2,.1,2.9-.6.9-.4,1.4,0,1.6.9C101.8,66.8,101.1,67.5,98.8,67.4Z" fill="#bcbcbc"/>
      <path id="Trazado_196" data-name="Trazado 196" d="M97.1,54.3c-1.6,1.3-3.1,2.8-3.5,5-.4.5-.2,1.1-.3,1.6a1.555,1.555,0,0,1-.6.8,3.086,3.086,0,0,1-2.6.7c-.3-1.8.3-3.4.4-5.1C92.1,54.7,94.4,54.1,97.1,54.3Z" fill="#f9f9f9"/>
      <path id="Trazado_197" data-name="Trazado 197" d="M92.6,61.3c.1-.2.3-.4.4-.6.6-.3,0,1.4,1,.5a1.711,1.711,0,0,1,2.6.1,2.034,2.034,0,0,1-1.3,2.1c-.7.4-1.7.7-1.7,1.8a11.73,11.73,0,0,0-1.1.5A4.121,4.121,0,0,1,92.6,61.3Z" fill="#bcbcbc"/>
      <path id="Trazado_198" data-name="Trazado 198" d="M92.6,61.3c0,1.5,0,3-.1,4.4-2.3-.6-2.9-1.3-2.4-3.4A18.61,18.61,0,0,0,92.6,61.3Z" fill="#f9f9f9"/>
      <path id="Trazado_199" data-name="Trazado 199" d="M96.7,61.3c-1.2,0-2.5-.4-3.3,1.2-.1-.7-.2-1.2-.3-1.7l.6-1.5c.2.4-.2,1,.4,1.1.2,0,.5-.5.7-.7.5-.4.9-1.1,1.8-.9h.6c-.1.9.4,1.8-.5,2.5Z" fill="#5c5c5c"/>
      <path id="Trazado_200" data-name="Trazado 200" d="M98.8,67.4c2.3.2,2.5-1.5,2.9-3,.5-.8-.4-1.8.4-2.5l.9.9a9.876,9.876,0,0,1-1.1,3.7C101.2,67.7,100.3,68.3,98.8,67.4Z" fill="#6d6d6d"/>
      <path id="Trazado_201" data-name="Trazado 201" d="M96.7,61.3c.8-.7-.5-1.8.5-2.5.8,1.6.2,3.3.5,5C96.7,63.2,97.5,62,96.7,61.3Z" fill="#bcbcbc"/>
      <path id="Trazado_202" data-name="Trazado 202" d="M102.1,61.8c-.1.9.3,1.8-.4,2.5a1.29,1.29,0,0,0-1.2-1.2C100.7,62.4,100.8,61.4,102.1,61.8Z" fill="#bbb"/>
      <path id="Trazado_203" data-name="Trazado 203" d="M97.1,58c-.8.4-1.1,1.8-2.5,1.2a2.712,2.712,0,0,1,1.1-2.3c.4-.4.8-1,1.4-.4C97.4,56.7,97.1,57.4,97.1,58Z" fill="#d6d6d6"/>
    </g>
  </g>
</svg>
